<svg xmlns="http://www.w3.org/2000/svg" width="135.001" height="40.401" viewBox="0 0 135.001 40.401">
  <g id="logo_dark" transform="translate(-2.53 -1.748)">
    <rect id="Ret창ngulo_91" data-name="Ret창ngulo 91" width="15.376" height="3.809" transform="translate(37.16 2.884)" fill="#21cc98"/>
    <g id="Grupo_260" data-name="Grupo 260">
      <path id="Caminho_57" data-name="Caminho 57" d="M38.419,26.853H51.511a6.677,6.677,0,0,0-6.341-5.085,6.959,6.959,0,0,0-6.751,5.085m-.408,3.989a7.663,7.663,0,0,0,7.772,7.078,8.743,8.743,0,0,0,6.9-3.189l3.171,2.941a12.721,12.721,0,0,1-10.124,4.387A12.059,12.059,0,0,1,33.306,29.844c0-7.027,4.91-12.213,11.711-12.213,6.7,0,11.558,5.285,11.558,12.213a8.229,8.229,0,0,1-.052,1H38.011Z"/>
    </g>
    <rect id="Ret창ngulo_92" data-name="Ret창ngulo 92" width="4.859" height="22.768" transform="translate(131.905 18.643)"/>
    <g id="Grupo_261" data-name="Grupo 261">
      <path id="Caminho_58" data-name="Caminho 58" d="M111.921,21.575a11.009,11.009,0,0,0-8.555-3.944,12.174,12.174,0,0,0-9.168,3.9c-2-2.347-4.605-3.942-9.174-3.9h0a11,11,0,0,0-8.555,3.944c-1.486,1.8-2.2,4.095-2.2,8.04V41.6H79.13V28.865c0-2.4.515-3.693,1.384-4.692a5.973,5.973,0,0,1,4.51-2.049h0A6.3,6.3,0,0,1,90.2,24.173c.871,1,1.385,2.3,1.385,4.692V41.6H96.45V29.615a18.852,18.852,0,0,0-.41-4.146,9.98,9.98,0,0,1,7.326-3.347,5.964,5.964,0,0,1,4.507,2.049c.87,1,1.383,2.3,1.383,4.692V41.6h4.866V29.615c0-3.945-.717-6.241-2.2-8.04"/>
      <path id="Caminho_59" data-name="Caminho 59" d="M134.31,1.748a3.169,3.169,0,0,1,3.221,3.141,3.129,3.129,0,0,1-3.221,3.09,3.086,3.086,0,0,1-3.172-3.09,3.127,3.127,0,0,1,3.172-3.141"/>
      <path id="Caminho_60" data-name="Caminho 60" d="M7.388,27.5V21.215H16.2V17.227H7.388v-6.62H2.53V30.185c0,3.938.717,6.23,2.2,8.026a10.991,10.991,0,0,0,8.54,3.938,11.188,11.188,0,0,0,2.931-.3V37.283a11.539,11.539,0,0,1-2.931.381,5.956,5.956,0,0,1-4.5-2.046c-.87-.995-1.382-2.293-1.382-4.685V27.5Z"/>
    </g>
  </g>
</svg>
