<svg xmlns="http://www.w3.org/2000/svg" width="236.26" height="71.398" viewBox="0 0 236.26 71.398">
  <g id="svgexport-1" transform="translate(-0.1 -0.661)">
    <g id="Grupo_297" data-name="Grupo 297" transform="translate(80.312 15.067)">
      <g id="Grupo_296" data-name="Grupo 296">
        <path id="Caminho_66" data-name="Caminho 66" d="M35.475,32.534h7.292a13.857,13.857,0,0,0,7-1.75,11.965,11.965,0,0,0,4.667-4.667,13.857,13.857,0,0,0,1.75-7,13.857,13.857,0,0,0-1.75-7A11.965,11.965,0,0,0,49.768,7.45a13.857,13.857,0,0,0-7-1.75H27.6V47.118h7.875Zm0-20.709h5.542c2.333,0,4.375.583,5.542,2.042A7.986,7.986,0,0,1,48.6,19.409a7.261,7.261,0,0,1-2.042,5.542,7.986,7.986,0,0,1-5.542,2.042H35.475Z" transform="translate(-27.6 -5.408)" fill="#fff"/>
        <path id="Caminho_67" data-name="Caminho 67" d="M80.476,8.225A18.358,18.358,0,0,0,70.851,5.6H55.1V47.018H70.851a16.963,16.963,0,0,0,9.625-2.625A15.664,15.664,0,0,0,86.893,37.1a25.5,25.5,0,0,0,2.333-10.792,24.543,24.543,0,0,0-2.333-10.792A17.207,17.207,0,0,0,80.476,8.225ZM78.143,36.81C76.1,39.435,73.184,40.6,69.392,40.6H62.975V12.309h6.417c3.792,0,6.709,1.167,8.75,3.792a16.406,16.406,0,0,1,3.208,10.209C81.351,30.393,80.476,34.184,78.143,36.81Z" transform="translate(25.112 -5.6)" fill="#fff"/>
        <path id="Caminho_68" data-name="Caminho 68" d="M56.617,47.7A16.93,16.93,0,0,0,73.535,30.784V5.7H65.659V31.368a9.042,9.042,0,1,1-18.084,0V5.7H39.7V30.784A16.93,16.93,0,0,0,56.617,47.7Z" transform="translate(-4.407 -5.408)" fill="#fff"/>
        <path id="Caminho_69" data-name="Caminho 69" d="M86.417,47.7a16.93,16.93,0,0,0,16.917-16.917V5.7H95.459V31.368a9.042,9.042,0,1,1-18.084,0V5.7H69.5V30.784A16.929,16.929,0,0,0,86.417,47.7Z" transform="translate(52.713 -5.408)" fill="#fff"/>
      </g>
    </g>
    <g id="Grupo_298" data-name="Grupo 298" transform="translate(0.1 0.661)">
      <path id="Caminho_70" data-name="Caminho 70" d="M15.1,10.4V71.361c0,.583.583.875,1.167.583L29.392,62.9c.292,0,.292-.292.292-.583V1.359c0-.583-.583-.875-1.167-.583L15.392,9.817A.9.9,0,0,0,15.1,10.4Z" transform="translate(28.652 -0.661)" fill="#fff"/>
      <path id="Caminho_71" data-name="Caminho 71" d="M21.892,9.817,8.767.775C8.183.484,7.6.775,7.6,1.359V35.485c0,.583.583.875,1.167.583l13.126-9.042c.292,0,.292-.292.292-.583V10.4A.9.9,0,0,0,21.892,9.817Z" transform="translate(14.276 -0.661)" fill="#fff"/>
      <path id="Caminho_72" data-name="Caminho 72" d="M7.6,22.892V38.935c0,.292,0,.583.292.583L21.017,48.56c.583.292,1.167,0,1.167-.583V13.559c0-.583-.583-.875-1.167-.583L7.892,22.017A1.072,1.072,0,0,0,7.6,22.892Z" transform="translate(14.276 22.724)" fill="#fff"/>
      <path id="Caminho_73" data-name="Caminho 73" d="M.1,10.4V71.361c0,.583.583.875,1.167.583l13.126-9.334c.292,0,.292-.292.292-.583V1.359c0-.583-.583-.875-1.167-.583L.392,9.817A1.018,1.018,0,0,1,.1,10.4Z" transform="translate(-0.1 -0.661)" fill="#fff"/>
    </g>
  </g>
</svg>
