<svg xmlns="http://www.w3.org/2000/svg" width="329.675" height="334.858" viewBox="0 0 329.675 334.858">
  <g id="Grupo_225" data-name="Grupo 225" transform="translate(-653.524 -67.816)">
    <path id="Caminho_7" data-name="Caminho 7" d="M818.346,99.356c69.423,0,119.89,43.967,130.124,106.987H983.2C972.481,125.1,907.37,67.816,818.346,67.816c-88.994,0-154.1,57.289-164.822,138.527h34.727C698.487,143.324,748.921,99.356,818.346,99.356Z" transform="translate(0 0)" fill="#fff"/>
    <path id="Caminho_8" data-name="Caminho 8" d="M818.319,289.481c-69.2,0-119.57-43.74-130-106.436h-34.76c10.941,80.946,75.957,137.979,164.757,137.979,88.831,0,153.846-57.033,164.788-137.979h-34.76C937.919,245.742,887.517,289.481,818.319,289.481Z" transform="translate(0.027 81.65)" fill="#2dccd2"/>
  </g>
</svg>
